<?xml version="1.0" encoding="iso-8859-1"?>
<!-- Uploaded to: SVG Repo, www.svgrepo.com, Generator: SVG Repo Mixer Tools -->
<!DOCTYPE svg PUBLIC "-//W3C//DTD SVG 1.1//EN" "http://www.w3.org/Graphics/SVG/1.1/DTD/svg11.dtd">
<svg fill="#fff" version="1.1" id="Capa_1" xmlns="http://www.w3.org/2000/svg" xmlns:xlink="http://www.w3.org/1999/xlink" 
	 width="800px" height="800px" viewBox="0 0 980 980" xml:space="preserve">
<g>
	<g>
		<path d="M970,848.807h-21.087V95.025c0-5.523-4.478-10-10-10h-170.49c-5.522,0-10,4.477-10,10v753.781h-19.422v-65.982
			c0-5.523-4.477-10-10-10H123.24c-5.523,0-10-4.477-10-10v-82.213c0-5.523,4.477-10,10-10h605.761c5.523,0,10-4.479,10-10v-4.344
			c0-5.521-4.477-10-10-10H123.24c-5.523,0-10-4.477-10-10v-78.562c0-5.523,4.477-10,10-10h605.761c5.523,0,10-4.479,10-10v-4.342
			c0-5.523-4.477-10-10-10H123.24c-5.523,0-10-4.479-10-10v-78.565c0-5.522,4.477-10,10-10h605.761c5.523,0,10-4.477,10-10v-4.342
			c0-5.523-4.477-10-10-10H123.24c-5.523,0-10-4.478-10-10v-78.564c0-5.523,4.477-10,10-10h605.761c5.523,0,10-4.477,10-10V191.629
			c0-5.523-4.477-10-10-10h-692c-5.523,0-10,4.477-10,10v657.177H10c-5.523,0-10,4.477-10,10v26.168c0,5.523,4.477,10,10,10h960
			c5.523,0,10-4.477,10-10v-26.168C980,853.283,975.523,848.807,970,848.807z M828.238,166.075c0-5.523,4.477-10,10-10h30.86
			c5.523,0,10,4.477,10,10v41.347c0,5.523-4.477,10-10,10h-30.86c-5.523,0-10-4.477-10-10V166.075z M828.238,337.799
			c0-5.522,4.477-10,10-10h30.86c5.523,0,10,4.478,10,10v41.347c0,5.523-4.477,10-10,10h-30.86c-5.523,0-10-4.477-10-10V337.799z
			 M828.238,509.521c0-5.521,4.477-10,10-10h30.86c5.523,0,10,4.479,10,10v41.348c0,5.523-4.477,10-10,10h-30.86
			c-5.523,0-10-4.477-10-10V509.521z M892.336,848.807H815V737.154c0-5.523,4.477-10,10-10h57.336c5.523,0,10,4.477,10,10V848.807z"
			/>
	</g>
</g>
</svg>