<?xml version="1.0" encoding="utf-8"?>
<!-- Generator: Adobe Illustrator 26.0.2, SVG Export Plug-In . SVG Version: 6.00 Build 0)  -->
<svg version="1.1" xmlns="http://www.w3.org/2000/svg" xmlns:xlink="http://www.w3.org/1999/xlink" x="0px" y="0px"
	 viewBox="0 0 512 512" style="enable-background:new 0 0 512 512;" xml:space="preserve">
<style type="text/css">
	.st0{fill:#FFFFFF;}
	.st1{fill:#F63FFF;}
	.st2{display:none;}
	.st3{display:inline;fill:none;}
	.st4{display:inline;}
	.st5{font-family:'FairfaxSix';}
	.st6{font-size:250px;}
	.st7{fill:#BE00E9;}
	.st8{display:inline;fill:#FFFFFF;}
</style>
<g id="Шар_1">
</g>
<g id="Шар_4">
	<rect width="512" height="512"/>
</g>
<g id="Шар_3">
	<circle class="st0" cx="124.5" cy="168.5" r="6.5"/>
	<circle class="st0" cx="141.5" cy="168.5" r="6.5"/>
	<circle class="st0" cx="158.5" cy="168.5" r="6.5"/>
	<circle class="st0" cx="124.5" cy="185.5" r="6.5"/>
	<circle class="st0" cx="141.5" cy="185.5" r="6.5"/>
	<circle class="st0" cx="158.5" cy="185.5" r="6.5"/>
	<circle class="st0" cx="124.5" cy="201.5" r="6.5"/>
	<circle class="st0" cx="141.5" cy="201.5" r="6.5"/>
	<circle class="st0" cx="158.5" cy="201.5" r="6.5"/>
	<circle class="st0" cx="124.5" cy="218.5" r="6.5"/>
	<circle class="st0" cx="141.5" cy="218.5" r="6.5"/>
	<circle class="st0" cx="158.5" cy="218.5" r="6.5"/>
	<circle class="st0" cx="124.5" cy="235.5" r="6.5"/>
	<circle class="st0" cx="141.5" cy="235.5" r="6.5"/>
	<circle class="st0" cx="158.5" cy="235.5" r="6.5"/>
	<circle class="st0" cx="124.5" cy="251.5" r="6.5"/>
	<circle class="st0" cx="141.5" cy="251.5" r="6.5"/>
	<circle class="st0" cx="158.5" cy="251.5" r="6.5"/>
	<circle class="st0" cx="124.5" cy="268.5" r="6.5"/>
	<circle class="st0" cx="141.5" cy="268.5" r="6.5"/>
	<circle class="st0" cx="158.5" cy="268.5" r="6.5"/>
	<circle class="st0" cx="124.5" cy="285.5" r="6.5"/>
	<circle class="st0" cx="141.5" cy="285.5" r="6.5"/>
	<circle class="st0" cx="158.5" cy="285.5" r="6.5"/>
	<circle class="st0" cx="124.5" cy="301.5" r="6.5"/>
	<circle class="st0" cx="141.5" cy="301.5" r="6.5"/>
	<circle class="st0" cx="158.5" cy="301.5" r="6.5"/>
	<circle class="st0" cx="124.5" cy="318.5" r="6.5"/>
	<circle class="st0" cx="141.5" cy="318.5" r="6.5"/>
	<circle class="st0" cx="158.5" cy="318.5" r="6.5"/>
	<circle class="st0" cx="174.5" cy="301.5" r="6.5"/>
	<circle class="st0" cx="191.5" cy="301.5" r="6.5"/>
	<circle class="st0" cx="208.5" cy="301.5" r="6.5"/>
	<circle class="st0" cx="174.5" cy="318.5" r="6.5"/>
	<circle class="st0" cx="191.5" cy="318.5" r="6.5"/>
	<circle class="st0" cx="208.5" cy="318.5" r="6.5"/>
	<circle class="st0" cx="208.5" cy="285.5" r="6.5"/>
	<circle class="st0" cx="225.5" cy="285.5" r="6.5"/>
	<circle class="st0" cx="242.5" cy="285.5" r="6.5"/>
	<circle class="st0" cx="208.5" cy="268.5" r="6.5"/>
	<circle class="st0" cx="225.5" cy="268.5" r="6.5"/>
	<circle class="st0" cx="242.5" cy="268.5" r="6.5"/>
	<circle class="st0" cx="208.5" cy="251.5" r="6.5"/>
	<circle class="st0" cx="225.5" cy="251.5" r="6.5"/>
	<circle class="st0" cx="242.5" cy="251.5" r="6.5"/>
	<circle class="st0" cx="208.5" cy="234.5" r="6.5"/>
	<circle class="st0" cx="225.5" cy="234.5" r="6.5"/>
	<circle class="st0" cx="242.5" cy="234.5" r="6.5"/>
	<circle class="st0" cx="208.5" cy="218.5" r="6.5"/>
	<circle class="st0" cx="225.5" cy="218.5" r="6.5"/>
	<circle class="st0" cx="242.5" cy="218.5" r="6.5"/>
	<circle class="st0" cx="209" cy="201.56" r="6.5"/>
	<circle class="st0" cx="226" cy="201.56" r="6.5"/>
	<circle class="st0" cx="243" cy="201.56" r="6.5"/>
	<circle class="st0" cx="208.5" cy="183.5" r="6.5"/>
	<circle class="st0" cx="225.5" cy="183.5" r="6.5"/>
	<circle class="st0" cx="242.5" cy="183.5" r="6.5"/>
	<circle class="st0" cx="209.5" cy="167.5" r="6.5"/>
	<circle class="st0" cx="226.5" cy="167.5" r="6.5"/>
	<circle class="st0" cx="243.5" cy="167.5" r="6.5"/>
	<circle class="st0" cx="225.5" cy="301.5" r="6.5"/>
	<circle class="st1" cx="274.5" cy="318.5" r="6.5"/>
	<circle class="st1" cx="291.5" cy="318.5" r="6.5"/>
	<circle class="st1" cx="308.5" cy="318.5" r="6.5"/>
	<circle class="st1" cx="274.5" cy="301.5" r="6.5"/>
	<circle class="st1" cx="291.5" cy="301.5" r="6.5"/>
	<circle class="st1" cx="308.5" cy="301.5" r="6.5"/>
	<circle class="st1" cx="274.5" cy="285.5" r="6.5"/>
	<circle class="st1" cx="291.5" cy="285.5" r="6.5"/>
	<circle class="st1" cx="308.5" cy="285.5" r="6.5"/>
	<circle class="st1" cx="274.5" cy="268.5" r="6.5"/>
	<circle class="st1" cx="291.5" cy="268.5" r="6.5"/>
	<circle class="st1" cx="308.5" cy="268.5" r="6.5"/>
	<circle class="st1" cx="274.5" cy="251.5" r="6.5"/>
	<circle class="st1" cx="291.5" cy="251.5" r="6.5"/>
	<circle class="st1" cx="308.5" cy="251.5" r="6.5"/>
	<circle class="st1" cx="274.5" cy="234.5" r="6.5"/>
	<circle class="st1" cx="291.5" cy="234.5" r="6.5"/>
	<circle class="st1" cx="308.5" cy="234.5" r="6.5"/>
	<circle class="st1" cx="274.5" cy="218.5" r="6.5"/>
	<circle class="st1" cx="291.5" cy="218.5" r="6.5"/>
	<circle class="st1" cx="308.5" cy="218.5" r="6.5"/>
	<circle class="st1" cx="274.5" cy="201.5" r="6.5"/>
	<circle class="st1" cx="291.5" cy="201.5" r="6.5"/>
	<circle class="st1" cx="308.5" cy="201.5" r="6.5"/>
	<circle class="st1" cx="274.5" cy="184.5" r="6.5"/>
	<circle class="st1" cx="291.5" cy="184.5" r="6.5"/>
	<circle class="st1" cx="308.5" cy="184.5" r="6.5"/>
	<circle class="st1" cx="274.5" cy="167.5" r="6.5"/>
	<circle class="st1" cx="291.5" cy="167.5" r="6.5"/>
	<circle class="st1" cx="308.5" cy="167.5" r="6.5"/>
	<circle class="st1" cx="324.5" cy="167.5" r="6.5"/>
	<circle class="st1" cx="341.5" cy="167.5" r="6.5"/>
	<circle class="st1" cx="358.5" cy="167.5" r="6.5"/>
	<circle class="st1" cx="324.5" cy="184.5" r="6.5"/>
	<circle class="st1" cx="341.5" cy="184.5" r="6.5"/>
	<circle class="st1" cx="358.5" cy="184.5" r="6.5"/>
	<circle class="st1" cx="358.5" cy="201.5" r="6.5"/>
	<circle class="st1" cx="375.5" cy="201.5" r="6.5"/>
	<circle class="st1" cx="392.5" cy="201.5" r="6.5"/>
	<circle class="st1" cx="358.5" cy="218.5" r="6.5"/>
	<circle class="st1" cx="375.5" cy="218.5" r="6.5"/>
	<circle class="st1" cx="392.5" cy="218.5" r="6.5"/>
	<circle class="st1" cx="358.5" cy="234.5" r="6.5"/>
	<circle class="st1" cx="375.5" cy="234.5" r="6.5"/>
	<circle class="st1" cx="392.5" cy="234.5" r="6.5"/>
	<circle class="st1" cx="324.5" cy="251.5" r="6.5"/>
	<circle class="st1" cx="341.5" cy="251.5" r="6.5"/>
	<circle class="st1" cx="358.5" cy="251.5" r="6.5"/>
	<circle class="st1" cx="324.5" cy="268.5" r="6.5"/>
	<circle class="st1" cx="341.5" cy="268.5" r="6.5"/>
	<circle class="st1" cx="358.5" cy="268.5" r="6.5"/>
	<circle class="st1" cx="375.5" cy="251.5" r="6.5"/>
	<circle class="st1" cx="375.5" cy="184.5" r="6.5"/>
</g>
<g id="Шар_2" class="st2">
	<rect x="118.12" y="162.38" class="st3" width="301.76" height="188.2"/>
	<text transform="matrix(1 0 0 1 118.1247 324.8823)" class="st4"><tspan x="0" y="0" class="st0 st5 st6">V</tspan><tspan x="150" y="0" class="st7 st5 st6">P</tspan></text>
	<circle class="st8" cx="157.5" cy="168.5" r="6.5"/>
</g>
</svg>
