<?xml version="1.0" encoding="utf-8"?>
<!-- Generator: Adobe Illustrator 26.0.2, SVG Export Plug-In . SVG Version: 6.00 Build 0)  -->
<svg version="1.1" xmlns="http://www.w3.org/2000/svg" xmlns:xlink="http://www.w3.org/1999/xlink" x="0px" y="0px"
	 viewBox="0 0 512 512" style="enable-background:new 0 0 512 512;" xml:space="preserve">
<style type="text/css">
	.st0{fill:#A472FF;}
	.st1{fill:url(#SVGID_1_);}
</style>
<g id="Шар_1">
</g>
<g id="Шар_2">
	<path class="st0" d="M105,199"/>
	<linearGradient id="SVGID_1_" gradientUnits="userSpaceOnUse" x1="192.3545" y1="164.7929" x2="402.8895" y2="359.8416">
		<stop  offset="0" style="stop-color:#8857FF"/>
		<stop  offset="0.1268" style="stop-color:#8D5CFF"/>
		<stop  offset="0.624" style="stop-color:#9E6CFF"/>
		<stop  offset="1" style="stop-color:#A472FF"/>
	</linearGradient>
	<path class="st1" d="M256.5,54C177.25,54,113,118.25,113,197.5v11.1l0.91,5.07c0.71,6.37,1.84,12.62,3.37,18.72l0,0l0,0
		c2.33,9.33,5.57,18.29,9.62,26.79l0,0.01l0.01,0.01c3.56,7.46,7.73,14.56,12.47,21.24l0.01,0.01l0.07,0.1
		c0.01,0.01,0.02,0.03,0.03,0.04L256.86,446.9l116.37-165.92c4.37-6.09,8.26-12.55,11.65-19.3l0,0l0,0
		c4.25-8.49,7.69-17.46,10.2-26.81l0,0l0,0c3.2-11.91,4.92-24.44,4.92-37.37C400,118.25,335.75,54,256.5,54z M257,251
		c-28.72,0-52-23.28-52-52s23.28-52,52-52s52,23.28,52,52S285.72,251,257,251z"/>
</g>
</svg>
